FFmpeg version SVN-r25716, Copyright (c) 2000-2010 the FFmpeg developers  built on Nov 10 2010 12:23:18 with gcc 4.1.2 20080704 (Red Hat 4.1.2-48)  configuration: --enable-libmp3lame --enable-shared --disable-mmx --arch=x86_64  libavutil     50.33. 0 / 50.33. 0  libavcore      0.12. 1 /  0.12. 1  libavcodec    52.94. 4 / 52.94. 4  libavformat   52.84. 0 / 52.84. 0  libavdevice   52. 2. 2 / 52. 2. 2  libavfilter    1.59. 0 /  1.59. 0  libswscale     0.12. 0 /  0.12. 0[mov,mp4,m4a,3gp,3g2,mj2 @ 0xc1194c0] multiple edit list entries, a/v desync might occur, patch welcomeInput #0, mov,mp4,m4a,3gp,3g2,mj2, from '/RAID10/data/converted_video_files/11932.mov':  Duration: 00:00:06.56, bitrate: 9667 kb/s    Stream #0.0(eng): Video: svq1, yuv410p, 257x300, 9662 kb/s, 29.54 fps, 30 tbr, 30 tbn, 30 tbc[buffer @ 0xc11f370] w:257 h:300 pixfmt:yuv410p[ffsink @ 0xc11f5e0] auto-inserting filter 'auto-inserted scaler 0' between the filter 'src' and the filter 'out'[scale @ 0xc11f900] w:257 h:300 fmt:yuv410p -> w:257 h:300 fmt:yuv420p flags:0x4Output #0, flv, to '/RAID10/data/converted_video_files/11932.flv':  Metadata:    encoder         : Lavf52.84.0    Stream #0.0(eng): Video: flv, yuv420p, 257x300, q=2-31, 600 kb/s, 1k tbn, 24 tbcStream mapping:  Stream #0.0 -> #0.0Press [q] to stop encodingframe=  128 fps=  0 q=31.0 size=     691kB time=5.33 bitrate=1061.0kbits/s dup=0 drop=36    frame=  152 fps=  0 q=31.0 Lsize=     768kB time=6.33 bitrate= 993.2kbits/s dup=0 drop=42    video:765kB audio:0kB global headers:0kB muxing overhead 0.337146%